<svg xmlns="http://www.w3.org/2000/svg" xmlns:xlink="http://www.w3.org/1999/xlink" width="1282" height="86" viewBox="0 0 1282 86">
  <defs>
    <linearGradient id="linear-gradient" x1="0.5" x2="0.5" y2="1" gradientUnits="objectBoundingBox">
      <stop offset="0" stop-color="#8a801f"/>
      <stop offset="1" stop-color="#f2ce31"/>
    </linearGradient>
    <radialGradient id="radial-gradient" cx="0.51" cy="0.5" r="0.655" gradientUnits="objectBoundingBox">
      <stop offset="0" stop-color="#3400bd"/>
      <stop offset="0.526" stop-color="#25008f"/>
      <stop offset="1" stop-color="#100051"/>
    </radialGradient>
    <clipPath id="clip-bg_02">
      <rect width="1282" height="86"/>
    </clipPath>
  </defs>
  <g id="bg_02" clip-path="url(#clip-bg_02)">
    <rect id="Rectangle_222" data-name="Rectangle 222" width="264" height="4" transform="translate(-9 40.5)" fill="url(#linear-gradient)"/>
    <rect id="Rectangle_223" data-name="Rectangle 223" width="264" height="4" transform="translate(1046 40.5)" fill="url(#linear-gradient)"/>
    <g id="Path_3016" data-name="Path 3016" transform="translate(245.697 3.765)" fill="url(#radial-gradient)">
      <path d="M 754.76953125 76.71997833251953 L 49.42026138305664 76.71997833251953 C 44.23516082763672 76.71997833251953 37.76906204223633 74.7371826171875 30.20156097412109 70.8267822265625 C 24.09836006164551 67.67298126220703 17.28416061401367 63.27088165283203 9.948260307312012 57.74288177490234 C -0.8816757798194885 49.58179092407227 -9.686891555786133 41.32514572143555 -11.92495536804199 39.18778228759766 C -9.696809768676758 37.00864410400391 -0.8850790858268738 28.54565048217773 9.954959869384766 20.18098068237305 C 17.29085922241211 14.52028179168701 24.10486030578613 10.01268196105957 30.20796012878418 6.783281326293945 C 37.77376174926758 2.779881477355957 44.2376594543457 0.7499815225601196 49.42026138305664 0.7499815225601196 L 754.76953125 0.7499815225601196 C 759.9427490234375 0.7499815225601196 766.0157470703125 2.72568154335022 772.8199462890625 6.622081756591797 C 778.3124389648438 9.76738166809082 784.2786865234375 14.15858173370361 790.552734375 19.67388153076172 C 799.9021606445312 27.89251899719238 807.17529296875 36.2095947265625 808.9248657226562 38.25318908691406 C 807.1856079101562 40.3369140625 799.9063110351562 48.87628555297852 790.5460815429688 57.31447982788086 C 784.2717895507812 62.97068023681641 778.3055419921875 67.47408294677734 772.8130493164062 70.6995849609375 C 766.0105590820312 74.69438171386719 759.9398803710938 76.71997833251953 754.76953125 76.71997833251953 Z" stroke="none"/>
      <path d="M 49.42034912109375 1.499984741210938 C 44.36285400390625 1.499984741210938 38.01922607421875 3.499313354492188 30.565673828125 7.442535400390625 C 24.50201416015625 10.65042877197266 17.72601318359375 15.13275909423828 10.4259033203125 20.76498031616211 C 0.36334228515625 28.52846908569336 -7.94952392578125 36.3803596496582 -10.8428955078125 39.18146133422852 C -7.942138671875 41.92369079589844 0.34442138671875 49.56548309326172 10.38677978515625 57.13420104980469 C 17.69122314453125 62.63931274414062 24.4713134765625 67.02075958251953 30.53900146484375 70.15686798095703 C 38.00201416015625 74.01420593261719 44.35455322265625 75.96997833251953 49.42034912109375 75.96997833251953 L 754.76953125 75.96997833251953 C 759.8024291992188 75.96997833251953 765.74267578125 73.98075866699219 772.4251098632812 70.05764770507812 C 777.8718872070312 66.85987091064453 783.7948608398438 62.38942718505859 790.0294189453125 56.77031707763672 C 798.7528686523438 48.90823745727539 805.6654052734375 40.9532585144043 807.9403686523438 38.25926971435547 C 805.6576538085938 35.62360763549805 798.77294921875 27.900390625 790.0720825195312 20.24998092651367 C 783.8335571289062 14.7646484375 777.9065551757812 10.40009307861328 772.45556640625 7.27764892578125 C 765.7628784179688 3.443870544433594 759.8124389648438 1.499984741210938 754.76953125 1.499984741210938 L 49.42034912109375 1.499984741210938 M 49.42034912109375 -1.52587890625e-05 L 754.76953125 -1.52587890625e-05 C 778.039306640625 -1.52587890625e-05 809.9033203125 38.24709320068359 809.9033203125 38.24709320068359 C 809.9033203125 38.24709320068359 778.039306640625 77.46997833251953 754.76953125 77.46997833251953 L 49.42034912109375 77.46997833251953 C 26.15057373046875 77.46997833251953 -13 39.1942024230957 -13 39.1942024230957 C -13 39.1942024230957 26.15057373046875 -1.52587890625e-05 49.42034912109375 -1.52587890625e-05 Z" stroke="none" fill="#a7a34b"/>
    </g>
  </g>
</svg>
